<?xml version="1.0" encoding="UTF-8" standalone="no"?>
<svg
   xmlns:dc="http://purl.org/dc/elements/1.1/"
   xmlns:cc="http://creativecommons.org/ns#"
   xmlns:rdf="http://www.w3.org/1999/02/22-rdf-syntax-ns#"
   xmlns:svg="http://www.w3.org/2000/svg"
   xmlns="http://www.w3.org/2000/svg"
   viewBox="0 0 4666.6665 4666.6665"
   height="4666.6665"
   width="4666.6665"
   xml:space="preserve"
   id="svg2"
   version="1.1"><metadata
     id="metadata8"><rdf:RDF><cc:Work
         rdf:about=""><dc:format>image/svg+xml</dc:format><dc:type
           rdf:resource="http://purl.org/dc/dcmitype/StillImage" /></cc:Work></rdf:RDF></metadata><defs
     id="defs6"><clipPath
       id="clipPath24"
       clipPathUnits="userSpaceOnUse"><path
         id="path22"
         d="M 0,3500 H 3500 V 0 H 0 Z" /></clipPath></defs><g
     transform="matrix(1.3333333,0,0,-1.3333333,0,4666.6667)"
     id="g10"><path
       id="path12"
       style="fill:#e4007c;fill-opacity:1;fill-rule:nonzero;stroke:none"
       d="M 0,0 H 3500 V 3500 H 0 Z" /><g
       transform="translate(1175.4503,793.9332)"
       id="g14"><path
         id="path16"
         style="fill:#a01880;fill-opacity:1;fill-rule:nonzero;stroke:none"
         d="M 0,0 793.933,-793.933 H 2324.55 V 1200.23 l -524.122,524.136 z" /></g><g
       id="g18"><g
         clip-path="url(#clipPath24)"
         id="g20"><g
           transform="translate(346.106,1920.826)"
           id="g26"><path
             id="path28"
             style="fill:#ffffff;fill-opacity:1;fill-rule:evenodd;stroke:none"
             d="m 0,0 c -15.797,-7.441 -22.799,-1.52 -36.433,-43.768 -13.632,-42.248 5.497,-223.764 91.022,-302.906 85.526,-79.141 238.816,-93.157 370.954,-44.299 38.439,14.214 74.457,30.639 106.995,47.344 -9.185,-52.773 -13.927,-105.967 -13.927,-158.893 0,-236.057 113.63,-413.86 265.991,-580.138 151.516,-165.356 386.092,-244.247 629.721,-244.247 243.628,0 478.188,81.903 623.692,244.247 150.535,167.96 265.997,344.081 265.997,580.138 0,50.2 -4.259,100.641 -12.535,150.735 28.149,-13.855 58.61,-27.295 90.768,-39.186 132.138,-48.858 285.427,-34.842 370.954,44.299 85.524,79.142 104.654,260.658 91.021,302.906 C 2830.587,-1.52 2823.584,-7.441 2807.788,0 l -30.014,7.708 c -19.333,1.83 -27.331,0.978 -56.064,-3.502 -28.732,-4.48 -129.691,-15.278 -224.601,-5.519 -33.72,3.466 -125.531,22.811 -195.098,40.101 94.93,87.845 223.344,201.135 315.374,261.01 163.885,106.627 48.336,352.917 -166.624,410.454 -214.973,57.524 -443.121,236.003 -443.121,236.003 0,0 -96.264,-158.683 126.136,-290.304 436.888,-258.559 -88.371,-283.01 -291.377,-321.469 -26.958,18.021 -54.003,33.534 -80.791,46.103 -112.027,55.448 -229.874,83.576 -350.285,83.576 -120.413,0 -238.265,-28.128 -350.306,-83.576 -37.122,-14.809 -72.245,-31.722 -105.426,-50.675 -219.547,35.933 -677.469,69.661 -260.978,316.149 222.4,131.621 126.137,290.303 126.137,290.303 0,0 -228.148,-178.478 -443.122,-236.002 C 162.668,642.823 47.12,396.533 211.004,289.906 298.944,232.693 420.12,126.694 513.548,40.734 443.219,22.979 345.669,2.283 310.679,-1.313 215.769,-11.072 114.81,-0.274 86.078,4.206 57.345,8.686 49.347,9.538 30.014,7.708 Z" /></g><g
           transform="translate(897.7173,1665.5917)"
           id="g30"><path
             id="path32"
             style="fill:#e4007c;fill-opacity:1;fill-rule:evenodd;stroke:none"
             d="m 0,0 c 3.989,16.395 8.227,32.527 12.713,48.398 -4.768,5.636 -9.201,11.517 -13.265,17.635 -32.339,-0.952 -147.207,-2.274 -245.151,18.966 -97.944,21.24 -177.563,62.558 -201.724,75.821 -11.192,-5.271 -16.154,-1.076 -25.811,-31.007 -9.658,-29.93 3.894,-158.524 64.484,-214.592 60.59,-56.068 169.188,-65.997 262.801,-31.383 53.281,19.701 100.009,45.398 134.507,66.846 3.625,16.751 7.695,33.441 12.199,50.048 z" /></g><g
           transform="translate(1437.7681,1831.1688)"
           id="g34"><path
             id="path36"
             style="fill:#e4007c;fill-opacity:1;fill-rule:evenodd;stroke:none"
             d="m 0,0 c 0,-46.856 49.574,-84.842 95.734,-84.842 46.222,0 83.774,37.986 83.774,84.842 0,46.858 -37.552,84.808 -83.774,84.808 C 49.574,84.808 0,46.858 0,0" /></g><g
           transform="translate(1873.1299,1831.1688)"
           id="g38"><path
             id="path40"
             style="fill:#e4007c;fill-opacity:1;fill-rule:evenodd;stroke:none"
             d="m 0,0 c 0,-47.213 37.814,-85.479 84.432,-85.479 46.542,0 96.355,38.266 96.355,85.479 0,47.199 -49.813,85.464 -96.355,85.464 C 37.814,85.464 0,47.199 0,0" /></g><g
           transform="translate(2602.834,1731.6244)"
           id="g42"><path
             id="path44"
             style="fill:#e4007c;fill-opacity:1;fill-rule:evenodd;stroke:none"
             d="M 0,0 C -1.684,-2.534 -3.431,-5.028 -5.238,-7.48 2.027,-27.001 8.564,-46.544 14.306,-66.033 l -0.779,0.733 c 5.434,-20.012 10.233,-40.144 14.381,-60.356 32.223,-19.011 72.524,-39.911 117.493,-56.539 93.614,-34.614 202.211,-24.684 262.801,31.383 60.59,56.067 74.143,184.662 64.485,214.593 -9.659,29.93 -14.621,25.736 -25.811,31.007 C 422.714,81.524 343.096,40.207 245.151,18.966 147.207,-2.273 32.339,-0.952 0,0" /></g><g
           transform="translate(1554.7075,1189.7401)"
           id="g46"><path
             id="path48"
             style="fill:#e4007c;fill-opacity:1;fill-rule:evenodd;stroke:none"
             d="m 0,0 c -11.401,-81.545 -98.25,-51.611 -98.25,-51.611 87.016,19.485 70.556,79.16 70.556,79.16 -46.493,-49.473 -101.047,-28.504 -132.302,24.66 -43.03,73.216 9.01,128.549 52.767,129.635 C -63.48,182.944 11.401,81.545 0,0 m 710.168,-68.722 c 0,193.568 -39.992,393.765 -537.698,275.056 -451.08,77.902 -530.279,-74.067 -530.279,-275.056 0,-193.568 226.02,-284.723 538.934,-206.723 303.915,-66 529.043,13.155 529.043,206.723 M 336.485,0 c -11.402,81.545 63.48,182.944 107.229,181.844 43.756,-1.086 95.796,-56.419 52.766,-129.635 -31.254,-53.164 -85.81,-74.133 -132.302,-24.66 0,0 -16.46,-59.675 70.557,-79.161 0,0 -86.849,-29.933 -98.25,51.612" /></g></g></g></g></svg>